<svg width="12" height="20" viewBox="0 0 12 20" fill="none" xmlns="http://www.w3.org/2000/svg">
<path id="&#239;&#135;&#152;" d="M10.3125 4.64064C10.5703 4.50002 10.8516 4.47658 11.1328 4.54689C11.4141 4.6172 11.625 4.75783 11.7891 4.9922C11.9531 5.22658 12.0234 5.50783 11.9766 5.78908L10.5938 14.8828C10.5234 15.2578 10.3359 15.5156 10.0312 15.6797C9.84375 15.7735 9.67969 15.8203 9.49219 15.8203C9.32812 15.8203 9.1875 15.7969 9.04688 15.75L6.42188 14.6485L5.41406 16.0547C5.17969 16.336 4.92188 16.4766 4.59375 16.5C4.26562 16.5235 3.98438 16.4297 3.75 16.2188C3.49219 16.0078 3.375 15.7266 3.375 15.375V13.4063L0.703125 12.2813C0.421875 12.1875 0.210938 12 0.09375 11.7188C-0.0234375 11.461 -0.046875 11.2031 0.046875 10.9219C0.117188 10.6406 0.28125 10.4297 0.5625 10.2656L10.3125 4.64064ZM4.5 15.375L5.36719 14.2031L4.5 13.8516V15.375ZM9.49219 14.6953L10.875 5.62502L1.125 11.25L3.65625 12.3047L8.60156 7.96877C8.69531 7.87502 8.8125 7.85158 8.95312 7.89845C9.07031 7.94533 9.16406 8.01564 9.21094 8.13283C9.25781 8.25002 9.23438 8.3672 9.16406 8.46095L5.88281 13.2188L9.49219 14.6953Z" fill="white"/>
</svg>
